<svg width="36" height="36" viewBox="0 0 36 36" fill="none" xmlns="http://www.w3.org/2000/svg">
<path d="M17.9356 35.7537C27.8411 35.7537 35.8711 27.75 35.8711 17.8769C35.8711 8.00383 27.8411 0.00012207 17.9356 0.00012207C8.03003 0.00012207 0 8.00383 0 17.8769C0 27.75 8.03003 35.7537 17.9356 35.7537Z" fill="#C8D3DA"/>
<path d="M27.0141 16.9035L32.4169 15.8416C32.6844 16.5356 32.778 17.246 32.95 17.9655C33.0052 18.1963 33.1028 18.5515 33.3868 18.592C33.687 18.6349 33.8425 18.1711 33.9442 17.9655C34.3311 17.1835 34.6246 16.3323 34.8411 15.4876C35.4268 13.2036 34.323 11.6072 32.9814 9.82364C32.4967 9.17919 31.8917 8.25207 31.1786 7.84675C30.8002 7.63164 30.7243 8.02456 30.7611 8.31923C30.813 8.73445 31.4565 10.1479 31.042 10.4372C30.7855 10.6161 30.0721 10.4431 29.7598 10.4431C28.8159 10.443 27.8691 10.4214 26.9256 10.4445C26.5425 10.4538 26.0641 10.6298 25.6951 10.4783C25.2171 10.2819 25.0259 9.29078 24.8371 8.85015C24.1905 7.34037 23.3551 5.95831 22.5856 4.5137C23.0782 4.35768 24.7465 4.37542 24.9614 3.87434C25.199 3.32042 23.5639 2.84294 23.2056 2.69278C21.7242 2.07214 20.1736 1.56519 18.5999 1.23952C17.9883 1.11296 17.218 0.89293 16.6925 1.36578C15.8437 2.12942 15.3157 3.50889 14.8132 4.5137C14.6577 4.82481 14.2264 5.45751 14.6425 5.73684C15.4089 6.25137 16.4964 5.17551 17.262 5.57944C17.6639 5.79142 17.8116 6.4182 17.9494 6.81467C18.3239 7.89244 18.674 8.98555 18.9645 10.0891C19.0548 10.4325 19.3731 11.1409 19.2021 11.4783C18.9916 11.8934 17.8626 11.9944 17.4485 12.1122C15.9876 12.5277 14.5494 13.0312 13.1085 13.5111C12.7211 13.6402 11.9211 14.0971 11.5239 13.9516C10.8783 13.7149 11.1212 10.829 10.0165 11.5589C9.53664 11.876 9.23347 12.5498 8.90815 13.0096C7.99988 14.2929 7.13528 15.6208 6.36485 16.992C6.0119 17.6202 5.44724 18.4056 5.99212 19.0996C6.31358 19.5091 6.90832 19.7139 7.35143 19.9635C8.58237 20.6567 9.88375 21.2378 11.16 21.8401C11.5927 22.0444 12.452 22.7226 12.8929 22.2735C13.5979 21.5554 12.2015 20.3217 12.7349 19.5832C13.0308 19.1735 13.8941 19.1856 14.3485 19.0986C15.8764 18.806 17.4187 18.6023 18.9542 18.3558C19.3566 18.2913 20.422 17.934 20.762 18.2109C21.1053 18.4905 21.1206 19.4967 21.2039 19.9125C21.4864 21.324 21.7197 22.7347 21.9146 24.1605C21.9786 24.6292 22.2223 25.4808 21.9631 25.9105C21.4839 26.7053 19.6907 25.9637 19.3794 26.9132C19.2164 27.4103 19.9883 27.9241 20.2748 28.2314C21.0233 29.0343 21.7819 29.7926 22.5856 30.5403C22.9748 30.9024 23.3323 31.4068 23.9141 31.4097C24.5856 31.4129 25.1516 30.7882 25.597 30.3541C26.7323 29.2476 27.7973 28.0554 28.7852 26.8154C29.099 26.4216 29.8912 25.6822 29.8636 25.1436C29.8111 24.1169 27.5282 25.6651 27.2597 24.7747C27.0731 24.1557 27.2798 23.1378 27.2798 22.479C27.2798 20.6201 27.3554 18.739 27.0141 16.9035Z" fill="url(#paint0_linear_6250_878)"/>
<defs>
<linearGradient id="paint0_linear_6250_878" x1="9.23268" y1="10.3078" x2="33.3715" y2="25.2094" gradientUnits="userSpaceOnUse">
<stop stop-color="#7EA8C5"/>
<stop offset="1" stop-color="#404E73"/>
</linearGradient>
</defs>
</svg>
