<svg fill="white" height="20px" width="20px" version="1.1" id="Capa_1" xmlns="http://www.w3.org/2000/svg" xmlns:xlink="http://www.w3.org/1999/xlink" viewBox="0 0 1.469 1.469" xml:space="preserve"><g><path d="M1.313 0.598 0.313 0.021c-0.048 -0.028 -0.109 -0.027 -0.157 0a0.158 0.158 0 0 0 -0.079 0.136v1.155a0.157 0.157 0 0 0 0.078 0.136 0.157 0.157 0 0 0 0.157 0l1 -0.578a0.158 0.158 0 0 0 0.078 -0.136 0.158 0.158 0 0 0 -0.079 -0.136m-0.075 0.142L0.238 1.318a0.007 0.007 0 0 1 -0.007 0 0.007 0.007 0 0 1 -0.003 -0.006V0.157a0.007 0.007 0 0 1 0.011 -0.006l1 0.577a0.007 0.007 0 0 1 0.004 0.006 0.007 0.007 0 0 1 -0.004 0.006"/></g></svg>