<?xml version="1.0" encoding="UTF-8" standalone="no"?>
<!-- Uploaded to: SVG Repo, www.svgrepo.com, Generator: SVG Repo Mixer Tools -->

<svg
   width="800px"
   height="800px"
   viewBox="0 0 16 16"
   fill="none"
   version="1.1"
   id="svg1"
   sodipodi:docname="share-icon.svg"
   xml:space="preserve"
   inkscape:version="1.4.2 (ebf0e940d0, 2025-05-08)"
   xmlns:inkscape="http://www.inkscape.org/namespaces/inkscape"
   xmlns:sodipodi="http://sodipodi.sourceforge.net/DTD/sodipodi-0.dtd"
   xmlns="http://www.w3.org/2000/svg"
   xmlns:svg="http://www.w3.org/2000/svg"><defs
     id="defs1" /><sodipodi:namedview
     id="namedview1"
     pagecolor="#ffffff"
     bordercolor="#000000"
     borderopacity="0.25"
     inkscape:showpageshadow="2"
     inkscape:pageopacity="0.0"
     inkscape:pagecheckerboard="0"
     inkscape:deskcolor="#d1d1d1"
     showguides="true"
     inkscape:zoom="0.70975843"
     inkscape:cx="193.02342"
     inkscape:cy="285.30834"
     inkscape:window-width="1890"
     inkscape:window-height="1016"
     inkscape:window-x="2575"
     inkscape:window-y="49"
     inkscape:window-maximized="1"
     inkscape:current-layer="svg1" /><path
     id="path2"
     style="fill:#000000;fill-opacity:1;stroke:#e0e0e0;stroke-width:0.0399003;stroke-linecap:round"
     d="M 8.0000001,0.01995053 A 7.9800438,7.9800438 0 0 0 0.01995053,8.0000001 7.9800438,7.9800438 0 0 0 8.0000001,15.98005 7.9800438,7.9800438 0 0 0 15.98005,8.0000001 7.9800438,7.9800438 0 0 0 8.0000001,0.01995053 Z M 9.183249,4.5394629 c 0.7167191,0 1.297715,0.5810174 1.297715,1.2977148 0,0.7166975 -0.5809959,1.2976934 -1.297715,1.2976934 -0.3056079,0 -0.5865535,-0.1056508 -0.8082913,-0.2824147 L 6.9897428,7.718205 c 0.020084,0.090726 0.030684,0.1850257 0.030684,0.2817951 0,0.096769 -0.0106,0.1910687 -0.030684,0.2817951 L 8.3749577,9.1475654 C 8.5966955,8.970775 8.8776413,8.865129 9.183249,8.865129 c 0.7167191,0 1.297715,0.5809742 1.297715,1.297693 0,0.716719 -0.5809959,1.297715 -1.297715,1.297715 -0.7166971,0 -1.2976934,-0.580996 -1.2976934,-1.297715 0,-0.09676 0.0106,-0.1910639 0.030684,-0.2817733 L 6.5310244,9.0152787 C 6.3092824,9.1920684 6.02835,9.2976936 5.7227332,9.2976936 c -0.7166975,0 -1.2977148,-0.5809961 -1.2977148,-1.2976935 0,-0.7166975 0.5810173,-1.2976934 1.2977148,-1.2976934 0.3056168,0 0.5865492,0.1056508 0.8082912,0.2824147 l 1.3852149,-0.86577 C 7.8961554,6.028225 7.8855556,5.9339471 7.8855556,5.8371777 c 0,-0.7166974 0.5809961,-1.2977148 1.2976934,-1.2977148 z" /><style
     type="text/css"
     id="style1">
	.st0{fill:#000000;}
</style></svg>
