<svg fill="#1565c1" version="1.1" xmlns="http://www.w3.org/2000/svg" xmlns:xlink="http://www.w3.org/1999/xlink" width="20px" height="20px" viewBox="0 0 12.8 12.8" xml:space="preserve"><g id="7935ec95c421cee6d86eb22ecd12b5bb"><path style="display: inline;" d="M12.643 10.546c0 1.238 -1.004 2.241 -2.241 2.241 -1.238 0 -2.242 -1.003 -2.242 -2.241 0 -0.041 0.004 -0.08 0.006 -0.12l-4.437 -2.262c-0.372 0.276 -0.832 0.441 -1.331 0.441 -1.238 0 -2.242 -1.003 -2.242 -2.241s1.003 -2.241 2.242 -2.241c0.554 0 1.061 0.202 1.452 0.536l4.319 -2.202c-0.006 -0.067 -0.01 -0.134 -0.01 -0.202 0 -1.238 1.003 -2.241 2.242 -2.241 1.237 0 2.241 1.004 2.241 2.241 0 1.238 -1.004 2.241 -2.241 2.241 -0.552 0 -1.056 -0.2 -1.447 -0.531l-4.325 2.205c0.006 0.064 0.01 0.129 0.01 0.194 0 0.116 -0.012 0.23 -0.029 0.341l4.285 2.184c0.398 -0.362 0.925 -0.584 1.506 -0.584 1.237 0 2.241 1.004 2.241 2.241"/></g></svg>