<?xml version="1.0" encoding="UTF-8"?>
<!DOCTYPE svg PUBLIC "-//W3C//DTD SVG 1.1//EN" "http://www.w3.org/Graphics/SVG/1.1/DTD/svg11.dtd">
<svg version="1.2" width="79.01mm" height="158.01mm" viewBox="5500 2100 7901 15801" preserveAspectRatio="xMidYMid" fill-rule="evenodd" stroke-width="28.222" stroke-linejoin="round" xmlns="http://www.w3.org/2000/svg" xmlns:ooo="http://xml.openoffice.org/svg/export" xmlns:xlink="http://www.w3.org/1999/xlink" xmlns:presentation="http://sun.com/xmlns/staroffice/presentation" xmlns:smil="http://www.w3.org/2001/SMIL20/" xmlns:anim="urn:oasis:names:tc:opendocument:xmlns:animation:1.0" xml:space="preserve">
 <defs class="EmbeddedBulletChars">
  <g id="bullet-char-template-57356" transform="scale(0.00048828125,-0.00048828125)">
   <path d="M 580,1141 L 1163,571 580,0 -4,571 580,1141 Z"/>
  </g>
  <g id="bullet-char-template-57354" transform="scale(0.00048828125,-0.00048828125)">
   <path d="M 8,1128 L 1137,1128 1137,0 8,0 8,1128 Z"/>
  </g>
  <g id="bullet-char-template-10146" transform="scale(0.00048828125,-0.00048828125)">
   <path d="M 174,0 L 602,739 174,1481 1456,739 174,0 Z M 1358,739 L 309,1346 659,739 1358,739 Z"/>
  </g>
  <g id="bullet-char-template-10132" transform="scale(0.00048828125,-0.00048828125)">
   <path d="M 2015,739 L 1276,0 717,0 1260,543 174,543 174,936 1260,936 717,1481 1274,1481 2015,739 Z"/>
  </g>
  <g id="bullet-char-template-10007" transform="scale(0.00048828125,-0.00048828125)">
   <path d="M 0,-2 C -7,14 -16,27 -25,37 L 356,567 C 262,823 215,952 215,954 215,979 228,992 255,992 264,992 276,990 289,987 310,991 331,999 354,1012 L 381,999 492,748 772,1049 836,1024 860,1049 C 881,1039 901,1025 922,1006 886,937 835,863 770,784 769,783 710,716 594,584 L 774,223 C 774,196 753,168 711,139 L 727,119 C 717,90 699,76 672,76 641,76 570,178 457,381 L 164,-76 C 142,-110 111,-127 72,-127 30,-127 9,-110 8,-76 1,-67 -2,-52 -2,-32 -2,-23 -1,-13 0,-2 Z"/>
  </g>
  <g id="bullet-char-template-10004" transform="scale(0.00048828125,-0.00048828125)">
   <path d="M 285,-33 C 182,-33 111,30 74,156 52,228 41,333 41,471 41,549 55,616 82,672 116,743 169,778 240,778 293,778 328,747 346,684 L 369,508 C 377,444 397,411 428,410 L 1163,1116 C 1174,1127 1196,1133 1229,1133 1271,1133 1292,1118 1292,1087 L 1292,965 C 1292,929 1282,901 1262,881 L 442,47 C 390,-6 338,-33 285,-33 Z"/>
  </g>
  <g id="bullet-char-template-9679" transform="scale(0.00048828125,-0.00048828125)">
   <path d="M 813,0 C 632,0 489,54 383,161 276,268 223,411 223,592 223,773 276,916 383,1023 489,1130 632,1184 813,1184 992,1184 1136,1130 1245,1023 1353,916 1407,772 1407,592 1407,412 1353,268 1245,161 1136,54 992,0 813,0 Z"/>
  </g>
  <g id="bullet-char-template-8226" transform="scale(0.00048828125,-0.00048828125)">
   <path d="M 346,457 C 273,457 209,483 155,535 101,586 74,649 74,723 74,796 101,859 155,911 209,963 273,989 346,989 419,989 480,963 531,910 582,859 608,796 608,723 608,648 583,586 532,535 482,483 420,457 346,457 Z"/>
  </g>
  <g id="bullet-char-template-8211" transform="scale(0.00048828125,-0.00048828125)">
   <path d="M -4,459 L 1135,459 1135,606 -4,606 -4,459 Z"/>
  </g>
  <g id="bullet-char-template-61548" transform="scale(0.00048828125,-0.00048828125)">
   <path d="M 173,740 C 173,903 231,1043 346,1159 462,1274 601,1332 765,1332 928,1332 1067,1274 1183,1159 1299,1043 1357,903 1357,740 1357,577 1299,437 1183,322 1067,206 928,148 765,148 601,148 462,206 346,322 231,437 173,577 173,740 Z"/>
  </g>
 </defs>
 <g class="Page">
  <g class="com.sun.star.drawing.CustomShape">
   <g id="id3">
    <rect class="BoundingBox" stroke="none" fill="none" x="5899" y="5100" width="7103" height="1902"/>
    <path fill="rgb(255,255,255)" stroke="none" d="M 6216,5100 L 6217,5100 C 6161,5100 6107,5115 6058,5142 6010,5170 5970,5210 5942,5258 5915,5307 5900,5361 5900,5417 L 5900,6684 5900,6684 C 5900,6740 5915,6794 5942,6843 5970,6891 6010,6931 6058,6959 6107,6986 6161,7001 6217,7001 L 12684,7001 12684,7001 C 12740,7001 12794,6986 12843,6959 12891,6931 12931,6891 12959,6843 12986,6794 13001,6740 13001,6684 L 13001,5416 13001,5417 13001,5417 C 13001,5361 12986,5307 12959,5258 12931,5210 12891,5170 12843,5142 12794,5115 12740,5100 12684,5100 L 6216,5100 Z"/>
   </g>
  </g>
  <g class="com.sun.star.drawing.CustomShape">
   <g id="id4">
    <rect class="BoundingBox" stroke="none" fill="none" x="5500" y="2100" width="7901" height="7901"/>
   </g>
  </g>
  <g class="com.sun.star.drawing.CustomShape">
   <g id="id5">
    <rect class="BoundingBox" stroke="none" fill="none" x="8499" y="2499" width="1903" height="7103"/>
    <path fill="rgb(255,255,255)" stroke="none" d="M 8500,9285 L 8500,9284 C 8500,9340 8515,9394 8542,9443 8570,9491 8610,9531 8658,9559 8707,9586 8761,9601 8817,9601 L 10084,9601 10084,9601 C 10140,9601 10194,9586 10243,9559 10291,9531 10331,9491 10359,9443 10386,9394 10401,9340 10401,9284 L 10401,2817 10401,2817 C 10401,2761 10386,2707 10359,2658 10331,2610 10291,2570 10243,2542 10194,2515 10140,2500 10084,2500 L 8816,2500 8817,2500 8817,2500 C 8761,2500 8707,2515 8658,2542 8610,2570 8570,2610 8542,2658 8515,2707 8500,2761 8500,2817 L 8500,9285 Z"/>
   </g>
  </g>
  <g class="com.sun.star.drawing.CustomShape">
   <g id="id6">
    <rect class="BoundingBox" stroke="none" fill="none" x="5899" y="13000" width="7103" height="1902"/>
    <path fill="rgb(255,255,255)" stroke="none" d="M 6216,13000 L 6217,13000 C 6161,13000 6107,13015 6058,13042 6010,13070 5970,13110 5942,13158 5915,13207 5900,13261 5900,13317 L 5900,14584 5900,14584 C 5900,14640 5915,14694 5942,14743 5970,14791 6010,14831 6058,14859 6107,14886 6161,14901 6217,14901 L 12684,14901 12684,14901 C 12740,14901 12794,14886 12843,14859 12891,14831 12931,14791 12959,14743 12986,14694 13001,14640 13001,14584 L 13001,13316 13001,13317 13001,13317 C 13001,13261 12986,13207 12959,13158 12931,13110 12891,13070 12843,13042 12794,13015 12740,13000 12684,13000 L 6216,13000 Z"/>
   </g>
  </g>
  <g class="com.sun.star.drawing.CustomShape">
   <g id="id7">
    <rect class="BoundingBox" stroke="none" fill="none" x="5500" y="10000" width="7901" height="7901"/>
   </g>
  </g>
 </g>
</svg>